<svg width="84" height="58" viewBox="0 0 84 58" fill="none" xmlns="http://www.w3.org/2000/svg">
<rect x="36" y="28" width="39" height="18" fill="#350066"/>
<rect x="9" y="15" width="53" height="18" fill="#350066"/>
<path d="M49.0903 34.9328C48.736 34.703 48.3216 34.5879 47.8479 34.5879C47.3743 34.5879 46.9495 34.7062 46.5881 34.9431C46.2267 35.1801 45.9462 35.5062 45.7459 35.9225C45.5845 36.258 45.4894 36.6365 45.458 37.0571H50.2061C50.1786 36.6259 50.0835 36.2383 49.9185 35.895C49.7205 35.4836 49.4445 35.1629 49.0903 34.9331V34.9328Z" fill="white"/>
<path d="M64.4461 24.0091V14.3668H57.9939V10.3643H3.95703V34.5882H24.5914V38.8144H31.3613V47.6364H80.0435V24.0091H64.4461ZM22.5231 28.6449H18.8899L17.4557 18.7424H17.1687L15.7345 28.6449H12.1012L10.6353 17.5006H12.7227L13.8062 27.18H14.0932L15.4954 17.5006H19.1286L20.5308 27.18H20.8175L21.901 17.5006H23.9884L22.5225 28.6449H22.5231ZM46.8399 17.5006H48.9432V28.6449H46.8399V17.5006ZM27.5906 28.6449H25.5827V20.7484H27.5906V28.6449ZM27.5106 19.4749C27.2661 19.7086 26.9581 19.8252 26.5863 19.8252C26.2146 19.8252 25.9195 19.7086 25.6701 19.4749C25.4203 19.2415 25.2954 18.9334 25.2954 18.5514C25.2954 18.1693 25.4203 17.8616 25.6701 17.6279C25.9195 17.3945 26.2249 17.2775 26.5863 17.2775C26.9477 17.2775 27.2661 17.3945 27.5106 17.6279C27.7549 17.8616 27.8772 18.1693 27.8772 18.5514C27.8772 18.9334 27.7549 19.2415 27.5106 19.4749ZM35.2712 22.4043H33.1038V26.5119C33.1038 26.8303 33.2523 26.9897 33.55 26.9897H35.0796V28.6456H32.8486C32.328 28.6456 31.9058 28.484 31.5816 28.1601C31.2574 27.8365 31.0957 27.4037 31.0957 26.8626V22.405H29.1199V20.7494H31.0957V18.2976H33.1035V20.7494H35.2708V22.405L35.2712 22.4043ZM37.0875 17.5006H39.0953V21.7194H39.3822C39.4673 21.5497 39.5997 21.38 39.7805 21.21C39.961 21.0403 40.2027 20.8993 40.5055 20.7881C40.8084 20.6766 41.1934 20.621 41.6609 20.621C42.2769 20.621 42.8162 20.762 43.2782 21.0429C43.7402 21.3244 44.099 21.7116 44.3539 22.2052C44.6089 22.6988 44.7363 23.2744 44.7363 23.9325V28.6449H42.7285V24.0916C42.7285 23.4972 42.5823 23.0514 42.2905 22.7544C41.9983 22.4573 41.5813 22.3086 41.0397 22.3086C40.4234 22.3086 39.9455 22.5132 39.6055 22.9215C39.2655 23.3304 39.0956 23.9005 39.0956 24.633V28.6449H37.0878V17.5006H37.0875ZM41.6321 41.2914H40.6864V31.864H37.2903V31.0158H45.0214V31.864H41.6321V41.2914ZM51.1131 37.8435H45.4484C45.4607 38.3639 45.5594 38.8287 45.7461 39.2366C45.9463 39.6733 46.2317 40.0136 46.6021 40.2573C46.9726 40.5011 47.4132 40.6229 47.9241 40.6229C48.2877 40.6229 48.6155 40.5609 48.9076 40.4367C49.1998 40.3126 49.446 40.1413 49.6462 39.9228C49.8465 39.7046 49.9901 39.4528 50.0775 39.1677L50.9678 39.2298C50.8666 39.662 50.6721 40.0447 50.3845 40.3779C50.0969 40.7112 49.7426 40.972 49.3214 41.1608C48.9002 41.3492 48.432 41.4436 47.9166 41.4436C47.2266 41.4436 46.6293 41.2791 46.1253 40.9504C45.6215 40.6216 45.2323 40.1688 44.9586 39.5918C44.6849 39.0148 44.548 38.3587 44.548 37.623C44.548 36.8873 44.6885 36.216 44.969 35.6368C45.2498 35.0575 45.6374 34.6024 46.1321 34.2714C46.6267 33.9404 47.1984 33.7749 47.8474 33.7749C48.3214 33.7749 48.7572 33.8635 49.1554 34.0403C49.5534 34.2174 49.8986 34.4712 50.1907 34.8022C50.4829 35.1332 50.7094 35.5298 50.8708 35.992C51.0319 36.4539 51.1125 36.9701 51.1125 37.5403V37.8438L51.1131 37.8435ZM58.3227 39.9742C58.1525 40.2638 57.9351 40.5188 57.6704 40.7396C57.4058 40.9604 57.1042 41.1317 56.7662 41.2535C56.4281 41.3754 56.0609 41.4362 55.6652 41.4362C55.0026 41.4362 54.4202 41.2729 53.9188 40.9465C53.417 40.62 53.0249 40.1694 52.7418 39.5947C52.4587 39.02 52.3173 38.3603 52.3173 37.6156C52.3173 36.8708 52.4587 36.2031 52.7418 35.6261C53.0249 35.0491 53.417 34.5963 53.9188 34.2675C54.4202 33.9388 55.0026 33.7743 55.6652 33.7743C56.0609 33.7743 56.4281 33.8354 56.7662 33.9569C57.1042 34.0788 57.4048 34.2488 57.6669 34.4673C57.9292 34.6858 58.1454 34.9395 58.3155 35.2295C58.4857 35.5191 58.6032 35.8342 58.6675 36.1743L57.7701 36.2363C57.7193 36.0065 57.6355 35.7925 57.518 35.5951C57.4006 35.3976 57.2524 35.2237 57.0729 35.0743C56.8933 34.925 56.6862 34.8077 56.4517 34.7227C56.2171 34.6376 55.9547 34.595 55.6649 34.595C55.1631 34.595 54.7305 34.7236 54.3672 34.9812C54.0035 35.2389 53.7227 35.5951 53.525 36.0502C53.327 36.5053 53.228 37.0273 53.228 37.6156C53.228 38.2039 53.327 38.7236 53.525 39.1742C53.7227 39.6248 54.0035 39.9777 54.3672 40.2328C54.7305 40.4878 55.1634 40.6155 55.6649 40.6155C55.9547 40.6155 56.2171 40.5754 56.4517 40.4949C56.6866 40.4144 56.891 40.2984 57.0661 40.1468C57.2408 39.9952 57.387 39.819 57.5044 39.6193C57.6219 39.4192 57.7079 39.2046 57.7633 38.9744L58.6743 39.0365C58.61 39.3723 58.4925 39.6849 58.3223 39.9745L58.3227 39.9742ZM58.7591 28.6449H56.7513V24.0916C56.7513 23.4972 56.605 23.0514 56.3132 22.7544C56.0211 22.4573 55.604 22.3086 55.0624 22.3086C54.4461 22.3086 53.9683 22.5132 53.6282 22.9215C53.2882 23.3304 53.1184 23.9005 53.1184 24.633V28.6449H51.1105V20.7484H53.0863V21.7831H53.3733C53.5008 21.5073 53.7399 21.2446 54.0902 20.995C54.4409 20.7458 54.9719 20.6207 55.6836 20.6207C56.2996 20.6207 56.8389 20.7616 57.3009 21.0425C57.7629 21.3241 58.1217 21.7113 58.3767 22.2049C58.6316 22.6984 58.7591 23.2741 58.7591 23.9322V28.6446V28.6449ZM66.1401 41.2914H65.2426V36.664C65.2426 36.0156 65.0676 35.5136 64.7182 35.1571C64.3685 34.8009 63.8967 34.6225 63.3031 34.6225C62.9029 34.6225 62.5425 34.7042 62.2228 34.8671C61.9028 35.0304 61.6485 35.2728 61.4599 35.5947C61.2713 35.9167 61.1768 36.312 61.1768 36.781V41.2914H60.2794V31.0158H61.1768V35.0886C61.3722 34.7272 61.6217 34.444 61.9258 34.2397C62.3745 33.9388 62.8886 33.7879 63.4687 33.7879C63.9796 33.7879 64.4361 33.8971 64.8389 34.1153C65.2417 34.3338 65.559 34.6509 65.7913 35.0669C66.0236 35.4832 66.1398 35.9968 66.1398 36.6084V41.291L66.1401 41.2914Z" fill="white"/>
</svg>
