<svg width="84" height="58" viewBox="0 0 84 58" fill="none" xmlns="http://www.w3.org/2000/svg">
<rect x="36" y="28" width="39" height="18" fill="white"/>
<rect x="9" y="15" width="53" height="18" fill="white"/>
<path d="M49.0903 34.9329C48.736 34.7031 48.3216 34.588 47.8479 34.588C47.3743 34.588 46.9495 34.7063 46.5881 34.9433C46.2267 35.1802 45.9462 35.5063 45.7459 35.9226C45.5845 36.2582 45.4894 36.6367 45.458 37.0572H50.2061C50.1786 36.626 50.0835 36.2384 49.9185 35.8952C49.7205 35.4837 49.4445 35.163 49.0903 34.9332V34.9329Z" fill="#350066"/>
<path d="M64.4461 24.009V14.3667H57.9939V10.3641H3.95703V34.588H24.5914V38.8143H31.3613V47.6362H80.0435V24.009H64.4461ZM22.5231 28.6448H18.8899L17.4557 18.7422H17.1687L15.7345 28.6448H12.1012L10.6353 17.5004H12.7227L13.8062 27.1799H14.0932L15.4954 17.5004H19.1286L20.5308 27.1799H20.8175L21.901 17.5004H23.9884L22.5231 28.6448ZM46.8399 17.5004H48.9432V28.6448H46.8399V17.5004ZM27.5906 28.6448H25.5827V20.7482H27.5906V28.6448ZM27.5106 19.4747C27.2661 19.7084 26.9581 19.8251 26.5863 19.8251C26.2146 19.8251 25.9195 19.7084 25.6701 19.4747C25.4203 19.2413 25.2954 18.9333 25.2954 18.5512C25.2954 18.1692 25.4203 17.8614 25.6701 17.6277C25.9195 17.3944 26.2249 17.2774 26.5863 17.2774C26.9477 17.2774 27.2661 17.3944 27.5106 17.6277C27.7549 17.8614 27.8772 18.1692 27.8772 18.5512C27.8772 18.9333 27.7549 19.2413 27.5106 19.4747ZM35.2712 22.4041H33.1038V26.5118C33.1038 26.8301 33.2523 26.9895 33.55 26.9895H35.0796V28.6454H32.8486C32.328 28.6454 31.9058 28.4838 31.5816 28.1599C31.2574 27.8364 31.0957 27.4036 31.0957 26.8625V22.4048H29.1199V20.7492H31.0957V18.2975H33.1035V20.7492H35.2708L35.2712 22.4041ZM37.0875 17.5004H39.0953V21.7192H39.3822C39.4673 21.5495 39.5997 21.3798 39.7805 21.2098C39.961 21.0401 40.2027 20.8992 40.5055 20.788C40.8084 20.6765 41.1934 20.6209 41.6609 20.6209C42.2769 20.6209 42.8162 20.7618 43.2782 21.0427C43.7402 21.3242 44.099 21.7115 44.3539 22.205C44.6089 22.6986 44.7363 23.2743 44.7363 23.9324V28.6448H42.7285V24.0914C42.7285 23.497 42.5823 23.0512 42.2905 22.7542C41.9983 22.4571 41.5813 22.3085 41.0397 22.3085C40.4234 22.3085 39.9455 22.5131 39.6055 22.9213C39.2655 23.3302 39.0956 23.9004 39.0956 24.6328V28.6448H37.0878L37.0875 17.5004ZM41.6321 41.2912H40.6864V31.8638H37.2903V31.0157H45.0214V31.8638H41.6321V41.2912ZM51.1131 37.8433H45.4484C45.4607 38.3637 45.5594 38.8285 45.7461 39.2364C45.9463 39.6731 46.2317 40.0135 46.6021 40.2572C46.9726 40.5009 47.4132 40.6228 47.9241 40.6228C48.2877 40.6228 48.6155 40.5607 48.9076 40.4366C49.1998 40.3125 49.446 40.1411 49.6462 39.9226C49.8465 39.7045 49.9901 39.4527 50.0775 39.1676L50.9678 39.2296C50.8666 39.6618 50.6721 40.0445 50.3845 40.3777C50.0969 40.711 49.7426 40.9718 49.3214 41.1606C48.9002 41.3491 48.432 41.4434 47.9166 41.4434C47.2266 41.4434 46.6293 41.2789 46.1253 40.9502C45.6215 40.6215 45.2323 40.1686 44.9586 39.5916C44.6849 39.0147 44.548 38.3585 44.548 37.6228C44.548 36.8872 44.6885 36.2158 44.969 35.6366C45.2498 35.0574 45.6374 34.6022 46.1321 34.2713C46.6267 33.9403 47.1984 33.7748 47.8474 33.7748C48.3214 33.7748 48.7572 33.8633 49.1554 34.0401C49.5534 34.2173 49.8986 34.471 50.1907 34.802C50.4829 35.133 50.7094 35.5296 50.8708 35.9918C51.0319 36.4537 51.1125 36.9699 51.1125 37.5401L51.1131 37.8433ZM58.3227 39.974C58.1525 40.2636 57.9351 40.5187 57.6704 40.7394C57.4058 40.9602 57.1042 41.1315 56.7662 41.2534C56.4281 41.3752 56.0609 41.436 55.6652 41.436C55.0026 41.436 54.4202 41.2728 53.9188 40.9463C53.417 40.6198 53.0249 40.1693 52.7418 39.5946C52.4587 39.0198 52.3173 38.3601 52.3173 37.6154C52.3173 36.8707 52.4587 36.2029 52.7418 35.6259C53.0249 35.049 53.417 34.5961 53.9188 34.2674C54.4202 33.9387 55.0026 33.7741 55.6652 33.7741C56.0609 33.7741 56.4281 33.8352 56.7662 33.9568C57.1042 34.0786 57.4048 34.2486 57.6669 34.4671C57.9292 34.6856 58.1454 34.9394 58.3155 35.2293C58.4857 35.5189 58.6032 35.8341 58.6675 36.1741L57.7701 36.2362C57.7193 36.0064 57.6355 35.7924 57.518 35.5949C57.4006 35.3974 57.2524 35.2235 57.0729 35.0742C56.8933 34.9248 56.6862 34.8075 56.4517 34.7225C56.2171 34.6375 55.9547 34.5948 55.6649 34.5948C55.1631 34.5948 54.7305 34.7235 54.3672 34.9811C54.0035 35.2387 53.7227 35.5949 53.525 36.05C53.327 36.5051 53.228 37.0271 53.228 37.6154C53.228 38.2037 53.327 38.7234 53.525 39.174C53.7227 39.6246 54.0035 39.9776 54.3672 40.2326C54.7305 40.4876 55.1634 40.6153 55.6649 40.6153C55.9547 40.6153 56.2171 40.5752 56.4517 40.4948C56.6866 40.4143 56.891 40.2982 57.0661 40.1466C57.2408 39.995 57.387 39.8189 57.5044 39.6191C57.6219 39.419 57.7079 39.2044 57.7633 38.9743L58.6743 39.0363C58.61 39.3722 58.4928 39.6844 58.3227 39.974ZM58.7591 28.6448H56.7513V24.0914C56.7513 23.497 56.605 23.0512 56.3132 22.7542C56.0211 22.4571 55.604 22.3085 55.0624 22.3085C54.4461 22.3085 53.9683 22.5131 53.6282 22.9213C53.2882 23.3302 53.1184 23.9004 53.1184 24.6328V28.6448H51.1105V20.7482H53.0863V21.7829H53.3733C53.5008 21.5072 53.7399 21.2444 54.0902 20.9948C54.4409 20.7456 54.9719 20.6205 55.6836 20.6205C56.2996 20.6205 56.8389 20.7615 57.3009 21.0424C57.7629 21.3239 58.1217 21.7111 58.3767 22.2047C58.6316 22.6983 58.7591 23.274 58.7591 23.9321V28.6448ZM66.1401 41.2912H65.2426V36.6638C65.2426 36.0154 65.0676 35.5134 64.7182 35.1569C64.3685 34.8007 63.8968 34.6223 63.3031 34.6223C62.9029 34.6223 62.5425 34.7041 62.2228 34.867C61.9028 35.0302 61.6485 35.2726 61.4599 35.5946C61.2713 35.9165 61.1768 36.3118 61.1768 36.7808V41.2912H60.2794V31.0157H61.1768V35.0884C61.3722 34.727 61.6217 34.4439 61.9258 34.2396C62.3745 33.9387 62.8886 33.7877 63.4687 33.7877C63.9796 33.7877 64.4361 33.8969 64.8389 34.1151C65.2417 34.3336 65.559 34.6507 65.7913 35.0667C66.0236 35.483 66.1398 35.9967 66.1398 36.6082L66.1401 41.2912Z" fill="#350066"/>
</svg>
